<svg xmlns="http://www.w3.org/2000/svg" xmlns:xlink="http://www.w3.org/1999/xlink" width="22" height="26" viewBox="0 0 22 26">
  <defs>
    <clipPath id="clip-path">
      <rect id="Rectangle_7" data-name="Rectangle 7" width="22" height="26" transform="translate(0 0.292)" fill="#fff"/>
    </clipPath>
    <clipPath id="clip-path-2">
      <rect id="Rectangle_6" data-name="Rectangle 6" width="11.96" height="11.96" transform="translate(5.02 7.312)" fill="#fff"/>
    </clipPath>
  </defs>
  <g id="icon-nyaman-black" transform="translate(0 -0.292)" clip-path="url(#clip-path)">
    <g id="Group">
      <g id="Group_2">
        <path id="Vector" d="M21.417,3.383,11.218.324a.761.761,0,0,0-.438,0L.582,3.383a.762.762,0,0,0-.543.73V15.331a7.246,7.246,0,0,0,1.756,4.44A18.15,18.15,0,0,0,5.453,23.16a32.827,32.827,0,0,0,5.235,3.065.762.762,0,0,0,.623,0,32.833,32.833,0,0,0,5.235-3.065A18.149,18.149,0,0,0,20.2,19.771a7.246,7.246,0,0,0,1.756-4.44V4.113A.761.761,0,0,0,21.417,3.383Zm-.981,11.948c0,2.582-2.591,5-4.765,6.58A32.253,32.253,0,0,1,11,24.688a32.252,32.252,0,0,1-4.672-2.777c-2.174-1.577-4.765-4-4.765-6.58V4.68L11,1.848,20.436,4.68V15.331Z" fill="#263238"/>
      </g>
    </g>
    <g id="dove_1" data-name="dove 1" clip-path="url(#clip-path-2)">
      <path id="Vector_2" d="M16.674,13.59a.932.932,0,0,1-.358-.2.891.891,0,0,1-.043-.08c-.11-.218-.367-.727-.887-.727a.916.916,0,0,0-.255.038,1.624,1.624,0,0,0-.895.7c-.1.136-.177.244-.264.261a.412.412,0,0,1-.077.008c-.084,0-.131-.032-.139-.095a5.541,5.541,0,0,1-.017-.841,4.347,4.347,0,0,0-.143-1.557,5.34,5.34,0,0,0-1.4-1.831c-.125-.121-.243-.235-.345-.34-.039-.048-.079-.092-.119-.134a1.367,1.367,0,0,1-.15-.18,4.2,4.2,0,0,1-.387-.84l-.029-.093a.437.437,0,0,0-.051-.117c-.055-.133-.121-.255-.221-.255a.135.135,0,0,0-.048.009c-.173.066-.211.425-.245.742a1.8,1.8,0,0,1-.065.392.6.6,0,0,1-.172.216.573.573,0,0,0-.2.288.377.377,0,0,0,.037.3.353.353,0,0,1,.045.232.415.415,0,0,1-.125.23.416.416,0,0,0-.131.261.4.4,0,0,0,.124.3.363.363,0,0,1,.111.234c0,.081-.049.122-.11.173a.334.334,0,0,0-.147.351.414.414,0,0,0,.187.263c.074.059.12.1.117.165a.75.75,0,0,1-.035.163.5.5,0,0,0,.032.465,2.3,2.3,0,0,0,.337.312,6.845,6.845,0,0,0-1.72-.545,12.867,12.867,0,0,1-2.7-.817,2.192,2.192,0,0,0-.433-.154.042.042,0,0,0-.044.027c-.011.031.016.06.081.114l.174.145c.234.194.417.346.5.422q-.057-.02-.163-.066a.063.063,0,0,0-.084.014.077.077,0,0,0-.012.045,7.609,7.609,0,0,0,1.415,2.2c.592.706,1.73,1.891,2.7,1.891a1.128,1.128,0,0,0,.17-.013,11.523,11.523,0,0,1-3.02,1.959c-1.5.621-2.172.94-2.219,1.19a.169.169,0,0,0,.058.157.276.276,0,0,0,.193.093.4.4,0,0,0,.131-.029.408.408,0,0,1,.136-.03.329.329,0,0,1,.176.059,1.083,1.083,0,0,0,.6.205,1.575,1.575,0,0,0,.884-.35.3.3,0,0,1,.183-.064.658.658,0,0,1,.11.012.771.771,0,0,0,.131.014.518.518,0,0,0,.321-.125,5.162,5.162,0,0,1,2.673-.875,6.578,6.578,0,0,0,3.53-1.26,3.484,3.484,0,0,0,1.41-1.982c.015-.049.028-.1.042-.138.139-.431.22-.531.322-.566.067-.023.235-.091.382-.15.1-.042.193-.078.218-.087s.041-.035.04-.047S16.768,13.612,16.674,13.59Z" fill="#263238"/>
    </g>
  </g>
</svg>
