<svg width="28" height="34" viewBox="0 0 28 34" fill="none" xmlns="http://www.w3.org/2000/svg">
<path d="M14 0.5L26.3255 3.239C27.011 3.392 27.5 3.9995 27.5 4.703V19.6835C27.5 22.6925 25.9955 25.5035 23.492 27.1715L14 33.5L4.508 27.1715C2.003 25.502 0.5 22.6925 0.5 19.685V4.703C0.5 3.9995 0.989 3.392 1.6745 3.239L14 0.5ZM14 3.5735L3.5 5.906V19.6835C3.5 21.689 4.502 23.5625 6.1715 24.6755L14 29.8955L21.8285 24.6755C23.498 23.5625 24.5 21.6905 24.5 19.685V5.906L14 3.575V3.5735ZM20.678 11.333L22.8005 13.454L13.2545 23L6.89 16.6355L9.011 14.5145L13.253 18.7565L20.678 11.3315V11.333Z" fill="#4BAC60"/>
</svg>
