<svg width="22" height="26" viewBox="0 0 22 26" fill="none" xmlns="http://www.w3.org/2000/svg">
<path d="M21.378 3.09119L11.179 0.0321928C11.0362 -0.0107309 10.8838 -0.0107309 10.741 0.0321928L0.543 3.09119C0.386021 3.1383 0.248412 3.23476 0.150596 3.36626C0.0527791 3.49776 -3.19557e-05 3.6573 1.45068e-08 3.82119V15.0392C0.0669093 16.6751 0.685862 18.2401 1.756 19.4792C2.8136 20.7718 4.04455 21.9122 5.414 22.8682C7.06066 24.0492 8.81314 25.0753 10.649 25.9332C10.747 25.9771 10.8531 25.9998 10.9605 25.9998C11.0679 25.9998 11.174 25.9771 11.272 25.9332C13.1078 25.0753 14.8603 24.0492 16.507 22.8682C17.875 21.9119 19.1046 20.7715 20.161 19.4792C21.2311 18.2401 21.8501 16.6751 21.917 15.0392V3.82119C21.9175 3.65777 21.8653 3.49854 21.7682 3.36707C21.6711 3.2356 21.5343 3.13887 21.378 3.09119ZM20.397 15.0392C20.397 17.6212 17.806 20.0392 15.632 21.6192C14.1559 22.6746 12.5933 23.6036 10.961 24.3962C9.32831 23.6036 7.76543 22.6747 6.289 21.6192C4.115 20.0422 1.524 17.6192 1.524 15.0392V4.38819L10.961 1.55619L20.397 4.38819V15.0392Z" fill="#4BAC60"/>
<path d="M11.3264 16.0015L5.99811 10.6732L4 12.6713L9.32828 17.9996L11.3264 16.0015Z" fill="#4BAC60"/>
<path d="M9.34154 17.9998L18 9.34131L16.0019 7.3432L7.34344 16.0017L9.34154 17.9998Z" fill="#4BAC60"/>
</svg>
