<svg xmlns="http://www.w3.org/2000/svg" xmlns:xlink="http://www.w3.org/1999/xlink" width="22" height="26" viewBox="0 0 22 26">
  <defs>
    <clipPath id="clip-path">
      <rect id="Rectangle_9" data-name="Rectangle 9" width="22" height="26" transform="translate(0 0.292)" fill="#fff"/>
    </clipPath>
    <clipPath id="clip-path-2">
      <rect id="Rectangle_8" data-name="Rectangle 8" width="11.96" height="11.96" transform="translate(5.313 7.604)" fill="#fff"/>
    </clipPath>
  </defs>
  <g id="icon-tentram-black" transform="translate(0 -0.292)" clip-path="url(#clip-path)">
    <g id="Group">
      <g id="Group_2">
        <path id="Vector" d="M21.417,3.383,11.218.324a.761.761,0,0,0-.438,0L.582,3.383a.762.762,0,0,0-.543.73V15.331a7.246,7.246,0,0,0,1.756,4.44A18.15,18.15,0,0,0,5.453,23.16a32.827,32.827,0,0,0,5.235,3.065.762.762,0,0,0,.623,0,32.833,32.833,0,0,0,5.235-3.065A18.149,18.149,0,0,0,20.2,19.771a7.246,7.246,0,0,0,1.756-4.44V4.113A.761.761,0,0,0,21.417,3.383Zm-.981,11.948c0,2.582-2.591,5-4.765,6.58A32.253,32.253,0,0,1,11,24.688a32.252,32.252,0,0,1-4.672-2.777c-2.174-1.577-4.765-4-4.765-6.58V4.68L11,1.848,20.436,4.68V15.331Z" fill="#263238"/>
      </g>
    </g>
    <g id="umbrella_1" data-name="umbrella 1" clip-path="url(#clip-path-2)">
      <g id="Group_3">
        <g id="Group_4">
          <path id="Vector_2" d="M11.643,8.323V7.954a.35.35,0,0,0-.7,0v.368a6,6,0,0,0-5.63,5.962.35.35,0,0,0,.642.194,1.355,1.355,0,0,1,1.133-.594,1.315,1.315,0,0,1,1.11.594.364.364,0,0,0,.583,0,1.325,1.325,0,0,1,2.161-.069v3.752a.7.7,0,1,1-1.4,0v-.35a.35.35,0,0,0-.7,0v.35a1.4,1.4,0,1,0,2.8,0V14.41a1.325,1.325,0,0,1,2.161.069.364.364,0,0,0,.583,0,1.355,1.355,0,0,1,1.133-.594,1.314,1.314,0,0,1,1.11.594.35.35,0,0,0,.642-.194A6,6,0,0,0,11.643,8.323Z" fill="#263238"/>
        </g>
      </g>
    </g>
  </g>
</svg>
