<svg xmlns="http://www.w3.org/2000/svg" xmlns:xlink="http://www.w3.org/1999/xlink" width="22" height="26" viewBox="0 0 22 26">
  <defs>
    <clipPath id="clip-path">
      <rect id="Rectangle_2" data-name="Rectangle 2" width="22" height="26" transform="translate(0 0.292)" fill="#fff"/>
    </clipPath>
    <clipPath id="clip-path-2">
      <rect id="Rectangle_1" data-name="Rectangle 1" width="11.96" height="11.96" transform="translate(5.02 7.312)" fill="#fff"/>
    </clipPath>
  </defs>
  <g id="icon-amanblack" transform="translate(0 -0.292)" clip-path="url(#clip-path)">
    <g id="Group">
      <g id="Group_2">
        <path id="Vector" d="M21.417,3.383,11.218.324a.761.761,0,0,0-.438,0L.582,3.383a.762.762,0,0,0-.543.73V15.331a7.246,7.246,0,0,0,1.756,4.44A18.15,18.15,0,0,0,5.453,23.16a32.827,32.827,0,0,0,5.235,3.065.762.762,0,0,0,.623,0,32.833,32.833,0,0,0,5.235-3.065A18.149,18.149,0,0,0,20.2,19.771a7.246,7.246,0,0,0,1.756-4.44V4.113A.761.761,0,0,0,21.417,3.383Zm-.981,11.948c0,2.582-2.591,5-4.765,6.58A32.253,32.253,0,0,1,11,24.688a32.252,32.252,0,0,1-4.672-2.777c-2.174-1.577-4.765-4-4.765-6.58V4.68L11,1.848,20.436,4.68V15.331Z" fill="#263238"/>
      </g>
    </g>
    <g id="like_1" data-name="like 1" clip-path="url(#clip-path-2)">
      <path id="Vector_2" d="M13.8,8.335A3.239,3.239,0,0,0,11,10.1a3.239,3.239,0,0,0-2.8-1.76,3.128,3.128,0,0,0-3.177,3.2c0,1.98,1.728,3.329,4.308,5.37,1.263,1,1.344,1.075,1.672,1.338.267-.215.415-.344,1.672-1.338,2.58-2.042,4.308-3.39,4.308-5.37A3.128,3.128,0,0,0,13.8,8.335Z" fill="#263238"/>
    </g>
  </g>
</svg>
