<svg width="46" height="44" viewBox="0 0 46 44" fill="none" xmlns="http://www.w3.org/2000/svg">
<path d="M35.6755 18.1277C36.3707 18.3396 36.762 19.0732 36.5495 19.7663C36.3369 20.4593 35.601 20.8491 34.9059 20.6375C32.8825 20.0208 30.4851 20.4466 28.3313 21.4233C32.4056 22.224 36.142 24.1886 39.1114 27.1017C43.8958 25.993 46.7196 21.0326 45.196 16.3576C43.6588 11.6411 38.3703 9.2818 33.8183 11.282C29.5684 13.1494 26.1781 16.5298 24.2988 20.7523C27.4679 18.4553 31.9014 16.9773 35.6755 18.1277Z" fill="#D23574"/>
<path d="M32.1457 33.7199C32.1585 34.4445 31.5795 35.0422 30.8526 35.0549C30.8448 35.055 30.837 35.0551 30.8292 35.0551C30.1129 35.0551 29.5262 34.4826 29.5136 33.7657C29.4767 31.6567 28.3296 29.5149 26.7324 27.7744C27.2276 31.8852 26.508 36.035 24.6465 39.7509C27.1826 43.9446 32.7873 45.0891 36.7763 42.1998C40.8007 39.2848 41.4171 33.5414 38.1024 29.8436C35.0076 26.3911 30.7351 24.2211 26.1262 23.7441C29.2969 26.0391 32.0769 29.786 32.1457 33.7199Z" fill="#D23574"/>
<path d="M16.1742 35.1889C16.0323 35.2376 15.8877 35.2607 15.7455 35.2607C15.1993 35.2607 14.6888 34.9191 14.501 34.3753C14.2643 33.6901 14.6297 32.9433 15.317 32.7073C17.3178 32.0205 19.0063 30.2708 20.1731 28.218C17.3828 29.5033 14.3361 30.1756 11.2473 30.1756C11.2471 30.1756 11.2474 30.1756 11.2471 30.1756C10.1968 30.1755 9.14476 30.0956 8.10453 29.9407C4.88646 33.6413 5.52618 39.31 9.5156 42.1997C13.54 45.1147 19.2096 43.9243 21.7128 39.6387C24.0501 35.6374 24.7999 30.9159 23.8306 26.3984C22.621 30.1141 19.9055 33.908 16.1742 35.1889Z" fill="#D23574"/>
<path d="M9.84173 20.5039C9.40419 19.9251 9.5202 19.1023 10.1008 18.6661C10.6813 18.23 11.5067 18.3456 11.9442 18.9244C13.2169 20.6081 15.4059 21.6682 17.7229 22.1405C14.8994 19.1069 13.0378 15.3339 12.353 11.2302C7.82877 9.3237 2.61967 11.682 1.09602 16.3569C-0.441145 21.0735 2.44645 26.0813 7.30822 27.1304C11.8466 28.1098 16.5816 27.3621 20.591 25.0483C20.5903 25.0483 20.5896 25.0483 20.5889 25.0483C16.6715 25.0484 12.2158 23.6449 9.84173 20.5039Z" fill="#D23574"/>
<path d="M21.8923 9.9595C22.3092 9.3658 23.1299 9.2214 23.7255 9.6372C24.321 10.0529 24.4658 10.8711 24.0488 11.4649C22.8352 13.1927 22.5006 15.5972 22.7668 17.9412C24.7898 14.3257 27.8185 11.3903 31.5151 9.4749C31.9357 4.59605 28.0763 0.385742 23.1456 0.385742C18.1712 0.385742 14.2863 4.67111 14.7878 9.605C15.256 14.2117 17.4331 18.4709 20.8806 21.5576C19.6686 17.8428 19.6287 13.1824 21.8923 9.9595Z" fill="#D23574"/>
</svg>
