<svg width="46" height="45" viewBox="0 0 46 45" fill="none" xmlns="http://www.w3.org/2000/svg">
<g id="icon-kamboja-small" clip-path="url(#clip0_3_3657)">
<g id="Group">
<g id="Group_2">
<path id="Vector" d="M35.6755 19.1277C36.3707 19.3396 36.762 20.0732 36.5495 20.7663C36.3369 21.4593 35.601 21.8491 34.9059 21.6375C32.8825 21.0208 30.4851 21.4466 28.3313 22.4233C32.4056 23.224 36.142 25.1886 39.1114 28.1017C43.8958 26.993 46.7196 22.0326 45.196 17.3576C43.6588 12.6411 38.3703 10.2818 33.8183 12.282C29.5684 14.1494 26.1781 17.5298 24.2988 21.7523C27.4679 19.4553 31.9014 17.9773 35.6755 19.1277V19.1277Z" fill="#D23574"/>
<path id="Vector_2" d="M32.1457 34.7199C32.1585 35.4445 31.5795 36.0422 30.8526 36.0549C30.8448 36.055 30.837 36.0551 30.8292 36.0551C30.1129 36.0551 29.5262 35.4826 29.5136 34.7657C29.4767 32.6567 28.3296 30.5149 26.7324 28.7744C27.2276 32.8852 26.508 37.035 24.6465 40.7509C27.1826 44.9446 32.7873 46.0891 36.7763 43.1998C40.8007 40.2848 41.4171 34.5414 38.1024 30.8436C35.0076 27.3911 30.7351 25.2211 26.1262 24.7441C29.2969 27.0391 32.0769 30.786 32.1457 34.7199V34.7199Z" fill="#D23574"/>
<path id="Vector_3" d="M16.1742 36.1889C16.0323 36.2376 15.8877 36.2607 15.7455 36.2607C15.1993 36.2607 14.6888 35.9191 14.501 35.3753C14.2643 34.6901 14.6297 33.9433 15.317 33.7073C17.3178 33.0205 19.0063 31.2708 20.1731 29.218C17.3828 30.5033 14.3361 31.1756 11.2473 31.1756C11.2471 31.1756 11.2474 31.1756 11.2471 31.1756C10.1968 31.1755 9.14476 31.0956 8.10453 30.9407C4.88646 34.6413 5.52618 40.31 9.5156 43.1997C13.54 46.1147 19.2096 44.9243 21.7128 40.6387C24.0501 36.6374 24.7999 31.9159 23.8306 27.3984C22.621 31.1141 19.9055 34.908 16.1742 36.1889V36.1889Z" fill="#D23574"/>
<path id="Vector_4" d="M9.84173 21.5039C9.40419 20.9251 9.5202 20.1023 10.1008 19.6661C10.6813 19.23 11.5067 19.3456 11.9442 19.9244C13.2169 21.6081 15.4059 22.6682 17.7229 23.1405C14.8994 20.1069 13.0378 16.3339 12.353 12.2302C7.82877 10.3237 2.61967 12.682 1.09602 17.3569C-0.441145 22.0735 2.44645 27.0813 7.30822 28.1304C11.8466 29.1098 16.5816 28.3621 20.591 26.0483C20.5903 26.0483 20.5896 26.0483 20.5889 26.0483C16.6715 26.0484 12.2158 24.6449 9.84173 21.5039V21.5039Z" fill="#D23574"/>
<path id="Vector_5" d="M21.8923 10.9595C22.3092 10.3658 23.1299 10.2214 23.7255 10.6372C24.321 11.0529 24.4658 11.8711 24.0488 12.4649C22.8352 14.1927 22.5006 16.5972 22.7668 18.9412C24.7898 15.3257 27.8185 12.3903 31.5151 10.4749C31.9357 5.59605 28.0763 1.38574 23.1456 1.38574C18.1712 1.38574 14.2863 5.67111 14.7878 10.605C15.256 15.2117 17.4331 19.4709 20.8806 22.5576C19.6686 18.8428 19.6287 14.1824 21.8923 10.9595Z" fill="#D23574"/>
</g>
</g>
</g>
<defs>
<clipPath id="clip0_3_3657">
<rect width="45" height="44" fill="white" transform="translate(0.623047 0.779297)"/>
</clipPath>
</defs>
</svg>
