<svg id="logo-dana" xmlns="http://www.w3.org/2000/svg" width="672.346" height="192.24" viewBox="0 0 672.346 192.24">
  <path id="Path_55" data-name="Path 55" d="M166.8,125.471c12.778.915,27.669-9.012,32.914-14.679,18.235-19.731,18.675-48.262.317-68.926-6.829-7.692-22.881-16.193-33.037-15H130.22v98.478l36.663.123Zm-15.841-21.333V48.078a132.01,132.01,0,0,1,17.284,0,26.789,26.789,0,0,1,12.55,4.858c21.121,14.433,12.321,48.843-12.9,51.149A126.324,126.324,0,0,1,150.954,104.138Z" transform="translate(98.982 20.337)" fill="#008ceb" fill-rule="evenodd"/>
  <path id="Path_56" data-name="Path 56" d="M334.48,125.679h20.963V104.452h41.591l.123,21.121H418.12V90.582c0-10.561.88-23.726-1.76-33.284a41.574,41.574,0,0,0-80.068-.44c-2.816,9.434-1.866,22.969-1.866,33.442,0,11.828-.123,23.726,0,35.554ZM355.46,83.1c-.123-8.8-1.056-18.217,3.08-24.994a20.435,20.435,0,0,1,17.865-10.156A20.752,20.752,0,0,1,394.147,58.2c4.083,7.04,3.115,15.841,3.01,24.923Z" transform="translate(254.085 20.305)" fill="#008ceb" fill-rule="evenodd"/>
  <path id="Path_57" data-name="Path 57" d="M198.3,125.7h20.893c0-4.435-.563-18.006.194-21.227h41.433l.141,21.209h20.928c-.106-11.758,0-23.5,0-35.2,0-10.033.933-24.4-1.76-33.3a41.591,41.591,0,0,0-80.068-.4c-2.8,9.153-1.848,23.146-1.848,33.337,0,11.758-.264,23.814,0,35.537Zm20.91-42.56c-.141-8.8-1.038-18.34,3.1-24.976a20.611,20.611,0,0,1,35.607,0c4.1,7.04,3.115,15.982,3.045,24.941Z" transform="translate(150.542 20.265)" fill="#008ceb" fill-rule="evenodd"/>
  <path id="Path_58" data-name="Path 58" d="M266.814,65.371l-.3,14.662c0,12.321-.6,35.325,0,45.341H287c.475-7.04-.739-57.045.546-58.647,0-9.716,10.156-18.763,20.4-18.8a20.452,20.452,0,0,1,14.292,5.7c2.6,2.376,6.6,7.8,6.53,13.271.95.546.194,52.8.493,58.594h20.505L349.61,65.74c.51-4.682-2.306-11.916-4.119-15.577a41.468,41.468,0,0,0-74.4-.634C269.331,53.138,266.374,60.565,266.814,65.371Z" transform="translate(202.38 20.294)" fill="#008ceb" fill-rule="evenodd"/>
  <circle id="Ellipse_1" data-name="Ellipse 1" cx="96.12" cy="96.12" r="96.12" transform="translate(0 0)" fill="#008ceb"/>
  <path id="Path_59" data-name="Path 59" d="M134.645,71.448V98.5c0,1.76-.757,2.13-2.235,1.267a49.424,49.424,0,0,0-6.16-3.133,41.767,41.767,0,0,0-20.224-2.693,96.913,96.913,0,0,0-21.9,5.492c-7.04,2.376-13.94,4.946-21.121,6.935a58.805,58.805,0,0,1-18.34,2.411,38.934,38.934,0,0,1-19.361-6.037A4.77,4.77,0,0,1,23,98.483V45.327c0-.862,0-1.883.774-2.323s1.567.282,2.235.722A36.962,36.962,0,0,0,47.4,50.062a57.027,57.027,0,0,0,15.982-2.975c7.322-2.271,14.4-5.28,21.6-7.833a130.5,130.5,0,0,1,17.2-5.28,37.332,37.332,0,0,1,29.447,5.439,6.46,6.46,0,0,1,3.08,5.756v26.4Z" transform="translate(17.481 25.077)" fill="#fefefe"/>
</svg>
