<svg xmlns="http://www.w3.org/2000/svg" width="672.346" height="167.25" viewBox="0 0 672.346 167.25">
  <g id="logo-permata" transform="translate(-197.827 -216.374)">
    <path id="Path_1" data-name="Path 1" d="M297.62,370.8l-.646,7.238-5.888,2.654-.156,1.815h24.53V380.28c-4.963,0-7.248-1.756-7.248-6.69V354.077c0-5.192,2.824-13.38,7.8-13.38,3.116,0,1.482,5.575,5.018,5.575h2.788a5.037,5.037,0,0,0,5.017-5.017V340.7a6.306,6.306,0,0,0-6.133-6.133h-2.23c-7,0-9.232,5.988-12.265,9.478v-9.478l-17.282,1.115v2.23h2.23c2.876,0,4.46,2.322,4.46,5.018V370.8Zm-38.468-17.84c0-6.815,3.738-16.725,10.035-16.725,6.878,0,8.92,10.887,8.92,18.4H259.152v-1.672Zm11.708,26.76c-8.364,0-12.265-13.718-12.265-22.858h30.662v-1.672c0-12.087-6.912-20.628-18.955-20.628H268.63c-28.949,0-29.315,48.5,0,48.5h3.9c6.777,0,16.168-6.779,16.168-11.708,0-1.141-1.149-1.025-2.23-1.115-1.066,3.991-7,9.478-12.265,9.478Zm336.173-8.92c0-11.676,11.282-15.053,22.857-15.053V363c0,9.178-5.189,17.283-13.938,17.283h-1.115c-4.3,0-7.8-4.992-7.8-9.478Zm128.546-31.457c3.043-1.786,5.139-.592,5.811-3.108H721.32v1.115c2.645,0,6.133,1.029,6.133,3.345,0,3.078-17.136,21.814-18.955,22.3V332.334l.674-17.277-13.5.552v1.673h3.345c1.8,0,2.788,2.024,2.788,3.9v55.192a4.193,4.193,0,0,1-4.461,4.46h-4.46c-12.67,0,7.206-46.273-17.84-46.273-13.864,0-12.376,6.59-17.84,10.593V335.122l-12.813.708-.009,1.522c4.214.094,6.132,1.844,6.132,6.132V375.82a4.714,4.714,0,0,1-5.017,5.017h-4.46c-2.477,0-3.472-1.312-4.46-2.788,0-9.474-.047-18.961,0-28.434.053-10.106-2.708-15.051-12.824-15.051h-3.9c-7.293,0-17.283,3.645-17.283,10.035v1.673c0,1.284.388,1.672,1.673,1.672h3.9c1.25,0,1.224-.441,2.231-1.115,0-6.7,2.44-11.15,8.919-11.15,7.382,0,10.593,3.239,10.593,10.593v3.345l-.624,5.007-2.721.01c-10.315,0-26.76,3.889-26.76,13.381v5.017c0,4.086,5.391,9.477,9.478,9.477h7.247c5.371,0,10.252-6.268,13.38-8.362,0,5.506.636,8.362,6.133,8.362h28.432v-1.672h-2.23c-3.536,0-5.018-3.187-5.018-6.69V355.192c0-7.795,5.228-17.84,12.823-17.84h3.345c5.995,0,8.363,7.656,8.363,13.937v18.4c0,5.115.032,11.15-5.018,11.15h-2.23v1.672h41.255v-1.672h-2.23c-3.536,0-5.017-3.187-5.017-6.69v-6.69c0-1.708,6.812-9.064,8.362-9.477l14.319,24.3,11.884.226v-1.672c-6.637-.553-9.3-7.857-12.488-12.6-1.287-1.916-9.255-14.055-9.255-15.275,0,0,7.932-8.8,8.772-9.625a26.38,26.38,0,0,1,5.487-3.992ZM503.895,367.457c0-7.227,7.688-10.593,15.053-10.593h2.229v8.92c0,7.307-3.465,13.938-10.592,13.938-3.124,0-6.69-4.61-6.69-7.8v-4.46Zm-.558-17.283c6.223,0,.177-13.937,11.15-13.937h.558c4.777,0,6.132,5.092,6.132,10.035v8.362h-3.345c-13.841,0-25.645,3.671-25.645,17.84,0,4.966,6.607,11.15,11.708,11.15h1.673c8.279,0,10.795-3.466,15.609-6.69.342,4.1,4.477,5.575,8.92,5.575h7.8V380.28c-6.848,0-6.138-3.5-6.132-10.036q.006-7.8,0-15.61c0-6.5.82-10.157-1.675-14.492a11.951,11.951,0,0,0-10.033-5.578h-7.247c-7.575,0-17.84,4.3-17.84,11.151,0,3.82,3.459,4.459,7.247,4.459ZM426.96,367.457c0-6.694,7.221-10.593,13.938-10.593h3.345v11.151c0,5.945-4.518,11.707-10.593,11.707-3.646,0-6.69-4.9-6.69-8.92v-3.345Zm-1.115-17.283c7.6,0,.386-13.937,11.707-13.937h.558c4.012,0,6.133,3.782,6.133,7.8v10.592c-12.718,0-28.991,2.757-28.991,15.053V370.8c0,7.864,4.9,11.248,12.134,12.4,10.6,1.685,12.852-5.047,17.414-6.266.1,4.357,3.971,5.575,8.363,5.575h7.8V380.28c-6.489,0-6.145-3.675-6.133-10.035.011-5.39,0-10.779,0-16.168,0-12.279-.524-19.513-12.823-19.513H435.88c-7.592,0-17.283,3.862-17.283,11.151v1.114c0,2.291,3.066,3.345,5.575,3.345Zm131.57-2.23h13.38c8.528,0,15.61,6.171,15.61,14.5v2.23c0,9.629-7.207,15.61-16.725,15.61H557.415V347.944Zm0-30.1h11.15c8.731,0,15.61,4.058,15.61,12.822v1.672c0,9.557-8.189,13.381-17.84,13.381h-8.92V317.84Zm13.38-2.231H542.92v1.673h2.23a4.192,4.192,0,0,1,4.46,4.46v55.192c0,2.819-3.567,3.9-6.69,3.9v1.115h31.22c11.007,0,20.628-5.24,20.628-16.168V363c0-10.09-10.03-16.168-20.071-16.168,4.152-3.608,17.84-.671,17.84-16.167v-1.673c0-9.226-12-13.38-21.742-13.38Zm-182.3,22.858c-5.782,0-10.592,6.875-10.592,12.265v24.53c0,2.573,1.234,4.46,3.9,4.46h2.788v2.787H360.617V380.28c3.628,0,6.133-.867,6.133-4.46V346.829c0-4.053-2.678-8.362-6.69-8.362-7.753,0-11.15,8.124-11.15,16.167V370.8c0,4.927.07,9.478,5.017,9.478H355.6v2.229H331.07v-2.787h3.9c2.713,0,3.345-3.822,3.345-6.69v-28.99c0-3.627-1.408-6.133-5.017-6.133h-1.673v-2.23l17.283-1.115v8.363c2.909-2.132,6.2-8.363,12.265-8.363h6.69c4.413,0,8.011,4.462,8.92,8.363H377.9c1.018-3.813,7.8-8.363,13.38-8.363h4.46c20.784,0,3.038,45.716,16.167,45.716h1.673v2.229H389.607V380.28c3.628,0,6.133-.867,6.133-4.46V350.174c0-5.77-1.025-11.707-6.69-11.707ZM216.225,318.4h8.362c6.175,0,11.15,7.158,11.15,13.937v6.133c0,7.876-6.382,13.38-14.495,13.38h-5.017V318.4Zm31.22,15.61c0,13.8-8.734,20.07-22.3,20.07h-8.92V373.59c0,4.413,1.719,6.132,6.132,6.132h1.673v2.787h-26.2v-2.787H199.5c3.628,0,6.133-1.408,6.133-5.018v-51.29c0-4.105-3.052-5.574-7.247-5.574v-2.231h28.432c11.9,0,20.628,6.2,20.628,18.4Zm213.522,4.46v-2.788h1.673c8.952,0,9.008-14.494,11.707-14.494h2.788v14.494h10.592v2.788H477.135v34.007c0,3.668,1.954,7.248,5.575,7.248,2.241,0,4.414-1.878,6.133-2.788.357,1.495.557,1.051.557,2.23,0,2.33-8.72,4.46-12.265,4.46-7.855,0-11.15-4.368-11.15-12.265V338.467Z" fill="#1b1b1c" fill-rule="evenodd"/>
    <g id="Group_4" data-name="Group 4">
      <g id="Group_1" data-name="Group 1">
        <path id="Path_2" data-name="Path 2" d="M765.363,216.932l22.3,8.92,28.99-9.478Z" fill="#c80018" fill-rule="evenodd"/>
        <path id="Path_3" data-name="Path 3" d="M762.575,220.277c4.845,2.563,18.27,8.077,21.185,11.15l3.9-5.018v-.557l-22.3-8.92L763.6,216.9Z" fill="#960e1a" fill-rule="evenodd"/>
        <path id="Path_4" data-name="Path 4" d="M787.663,225.852v.558l6.133,4.46,27.875-10.035-3.345-4.46h-1.672Z" fill="#d32940" fill-rule="evenodd"/>
        <path id="Path_5" data-name="Path 5" d="M783.76,231.427l10.035,73.59V230.869l-6.133-4.46Z" fill="#c30016" fill-rule="evenodd"/>
        <path id="Path_6" data-name="Path 6" d="M793.795,307.8v-2.787l-10.035-73.59c-2.915-3.073-16.34-8.587-21.185-11.15l29.588,86.866Z" fill="#550b12" fill-rule="evenodd"/>
        <path id="Path_7" data-name="Path 7" d="M793.795,230.869V307.8c2.774,1.615,3.868-5.78,4.683-8.7,1.1-3.949,2.209-7.083,3.345-11.15,2.143-7.675,4.517-14.517,6.69-22.3,2.141-7.671,4.5-14.524,6.691-22.3,1.584-5.619,6.055-17.586,6.466-22.524Z" fill="#9b0c1a" fill-rule="evenodd"/>
      </g>
      <g id="Group_2" data-name="Group 2">
        <path id="Path_8" data-name="Path 8" d="M722.435,270.452l18.955,1.115,15.053-18.4Z" fill="#0083a9" fill-rule="evenodd"/>
        <path id="Path_9" data-name="Path 9" d="M756.443,253.169l-15.053,18.4v.558l7.248,2.788L763.133,255.4l-5.041-3.387Z" fill="#00a7e1" fill-rule="evenodd"/>
        <path id="Path_10" data-name="Path 10" d="M721.878,274.354,741.39,277.7v-6.132l-18.955-1.115-1.185.563Z" fill="#005c7b" fill-rule="evenodd"/>
        <path id="Path_11" data-name="Path 11" d="M741.39,277.7l46.272,70.245-39.025-73.032-7.248-2.788Z" fill="#0081a8" fill-rule="evenodd"/>
        <path id="Path_12" data-name="Path 12" d="M789.335,351.847l-1.672-3.9L741.39,277.7l-19.512-3.345c8.714,13.013,23.584,26.241,33.227,39.248C758.873,318.683,785.844,351.033,789.335,351.847Z" fill="#003d5a" fill-rule="evenodd"/>
        <path id="Path_13" data-name="Path 13" d="M748.638,274.912l39.025,73.032,1.672,3.9c1-.362,1.673-.4,1.673-2.23,0-1.771-26.081-90.478-27.875-94.218Z" fill="#005c7b" fill-rule="evenodd"/>
      </g>
      <g id="Group_3" data-name="Group 3">
        <path id="Path_14" data-name="Path 14" d="M840.068,269.894l28.99-.558-40.7-18.4Z" fill="#749f19" fill-rule="evenodd"/>
        <path id="Path_15" data-name="Path 15" d="M823.9,252.612l9.478,21.743,6.69-3.9v-.558L828.36,250.939Z" fill="#4b7527" fill-rule="evenodd"/>
        <path id="Path_16" data-name="Path 16" d="M840.068,269.894v.558l1.673,7.247,28.432-2.23-.029-5.527-1.085-.605Z" fill="#98b52d" fill-rule="evenodd"/>
        <path id="Path_17" data-name="Path 17" d="M796.583,381.952l1.115-2.787,35.68-104.811L823.9,252.612c-1.027,1.618-13.526,58.259-14.544,64.621-1.636,10.218-5.169,21.768-7.242,32.34C800.994,355.287,794.262,378.613,796.583,381.952Z" fill="#2c6029" fill-rule="evenodd"/>
        <path id="Path_18" data-name="Path 18" d="M833.378,274.354,797.7,379.164,841.74,277.7l-1.673-7.247Z" fill="#749c1a" fill-rule="evenodd"/>
        <path id="Path_19" data-name="Path 19" d="M841.74,277.7,797.7,379.165l-1.115,2.787c3.561,2.072,8.957-8.419,10.7-11.039,3.142-4.712,5.828-9.056,9.031-13.826,6.209-9.249,11.752-17.9,17.948-27.209,12.15-18.246,23.8-36.324,35.907-54.409Z" fill="#5c7b23" fill-rule="evenodd"/>
      </g>
    </g>
  </g>
</svg>
