<svg xmlns="http://www.w3.org/2000/svg" width="539.995" height="168.384" viewBox="0 0 539.995 168.384">
  <g id="logo-ovo" transform="translate(-197.827 -1656.839)">
    <path id="Logo_ovo_purple" d="M148.714,142a87.975,87.975,0,0,1-61.737,24.2A88.326,88.326,0,0,1,24.889,142a81.942,81.942,0,0,1,0-117.651A88.045,88.045,0,0,1,87.047.009a87.975,87.975,0,0,1,61.737,24.2,81.872,81.872,0,0,1,0,117.651M87.047,27.089A54.23,54.23,0,0,0,32.325,83.214a54.581,54.581,0,1,0,109.162,0A54.23,54.23,0,0,0,87.047,27.089m266.591-7.507-66.718,148.8-3.788-.7c-19.082-3.438-22.941-8.208-31.851-27.571L201.26,31.158h-18.8V4.71h71.068V31.158H236.548l40.2,90.15,39.007-90.15H294.707V4.71h58.931ZM515,142a91.2,91.2,0,0,1-123.754,0,81.942,81.942,0,0,1,0-117.651,91.2,91.2,0,0,1,123.755,0A81.731,81.731,0,0,1,515,142M453.61,27.089a54.3,54.3,0,0,0-54.792,56.125,54.581,54.581,0,0,0,109.162,0A54.16,54.16,0,0,0,453.61,27.089" transform="translate(197.836 1656.84)" fill="#4b2489" fill-rule="evenodd"/>
  </g>
</svg>
