<svg xmlns="http://www.w3.org/2000/svg" width="728" height="153.336" viewBox="0 0 728 153.336">
  <g id="logo-gopay" transform="translate(0)">
    <path id="Path_48" data-name="Path 48" d="M79.43,0c43.86,0,79.42,34.32,79.42,76.65S123.29,153.3,79.43,153.3,0,118.98,0,76.65,35.56,0,79.43,0Z" fill="#00aed6"/>
    <path id="Path_49" data-name="Path 49" d="M125.76,74.29c-.61-9.76-9.21-17.24-19.33-16.8H56.26a3.2,3.2,0,1,1,0-6.39h50.83A15.37,15.37,0,0,0,95.51,37.05a131.685,131.685,0,0,0-44.81,0A20.649,20.649,0,0,0,34.82,54.1a148.616,148.616,0,0,0,0,45.35,21.881,21.881,0,0,0,18.13,17.06,229.641,229.641,0,0,0,55.33,0,18.924,18.924,0,0,0,15.36-16.1,117.463,117.463,0,0,0,2.12-26.12ZM109.21,85.02h0v2.81a3.312,3.312,0,0,1-6.62,0V85.02a4.587,4.587,0,0,1-1.65-3.58,4.961,4.961,0,1,1,8.27,3.58Z" fill="#fff" fill-rule="evenodd"/>
    <path id="Path_50" data-name="Path 50" d="M385.08,68.03c.11-13.44-11.09-24.42-25.02-24.53s-25.3,10.7-25.41,24.14,11.09,24.43,25.02,24.53h.39c13.21.69,24.5-9.1,25.21-21.85.04-.76.04-1.53.01-2.29Zm-74.92,0h0c0-25.55,20.91-45.03,49.9-45.03s49.91,19.6,49.91,45.03-20.72,45.09-49.91,45.09S310.16,93.51,310.16,68.03Z"/>
    <path id="Path_51" data-name="Path 51" d="M270.44,72.69c0,10.54-11.12,19.16-25.21,19.16-12.95,1.27-24.51-7.84-25.82-20.34a21.912,21.912,0,0,1-.06-3.8c0-13.93,10.59-23.51,26.87-23.51,13.24,0,24.22,8.75,24.22,18.65Zm.99-49.76h0V33.02A41.168,41.168,0,0,0,241.85,23c-25.68.22-46.3,20.5-46.07,45.28s21.25,44.69,46.93,44.46A38.728,38.728,0,0,0,271.1,102.2v8.62c0,11.69-10.45,20.25-24.22,20.25a38.813,38.813,0,0,1-28.59-9.71L202.2,136.31a62.9,62.9,0,0,0,45.34,16.99c28.2,0,47.52-18.27,47.52-42.6V22.93H271.43Z"/>
    <path id="Path_52" data-name="Path 52" d="M424.53,25.55h23.69v7.54h.33a40.579,40.579,0,0,1,28.53-9.97c25.79.94,45.91,21.88,44.94,46.76-.92,23.58-20.51,42.48-44.94,43.37a43.775,43.775,0,0,1-27.67-9.01v42.67H424.73l-.2-121.36ZM473.24,44.2h0c-13.24,0-24.02,8.88-24.02,18.53V73.52c0,10.28,10.65,18.78,24.15,18.78,13.77.68,25.5-9.53,26.21-22.81s-9.87-24.6-23.64-25.29c-.85-.04-1.71-.04-2.57,0Z"/>
    <path id="Path_53" data-name="Path 53" d="M569.41,59.79c16.22-2.11,21.05-4.35,21.05-8.69,0-5.62-6.15-9.01-15.69-9.01a20.865,20.865,0,0,0-22.04,15.4l-23.29-4.67c3.31-17.37,21.84-29.76,44.67-29.76,25.82,0,41.83,12.77,41.83,33.47v54.23H593.77v-9.45h-.33a37.2,37.2,0,0,1-29.85,11.75c-19.53,0-33.1-10.29-33.1-25.55s11.12-24.02,38.92-27.72Zm23.04,9h-.33c-2.19,3.07-6.62,4.86-18.87,6.9-14.49,2.62-19.85,5.37-19.85,10.35s4.3,7.41,13.63,7.41c14.23,0,25.22-6.39,25.22-14.5l.2-10.16Z"/>
    <path id="Path_54" data-name="Path 54" d="M660.62,105.97,619.78,25.55h27.21l26.8,55.7h.4l26.47-55.7H728L666.84,146.91h-27.2Z"/>
  </g>
</svg>
