<svg xmlns="http://www.w3.org/2000/svg" width="672.346" height="295.506" viewBox="0 0 672.346 295.506">
  <g id="logo-shopeepay" transform="translate(-8190 -3601)">
    <path id="Path_60" data-name="Path 60" d="M8222.445,3648.287h216.793a26.267,26.267,0,0,1,26.189,26.189V3826.23a26.267,26.267,0,0,1-26.189,26.19H8216.189A26.267,26.267,0,0,1,8190,3826.23v-187.4c0-6.838,5.674-11.495,12.367-12.368L8402.281,3601a12.357,12.357,0,0,1,12.367,12.367v21.243H8209.934c0,8.875,2.619,13.822,12.512,13.822Zm121.637,166.159h0c-18.187,3.492-41.613-2.619-54.416-16.3-5.82-6.111,3.492-15.568,9.312-9.312,8.585,9.167,23.861,13.532,36.375,13.241,15.858-.291,30.118-14.841,20.951-30.991-12.513-22.407-43.358-16.15-59.072-33.61-12.8-14.113-6.692-36.52,8.294-46.414,15.713-10.33,42.776-9.894,55.58,4.8,5.529,6.4-3.783,15.714-9.312,9.312-10.476-11.931-35.064-10.33-44.377,2.037-13.385,17.6,6.693,27.063,20.662,31.282,19.205,5.82,40.447,16.441,43.939,38.412C8374.781,3794.658,8361.105,3811.1,8344.082,3814.445Z" fill="#ee4e2c" fill-rule="evenodd"/>
    <path id="Path_61" data-name="Path 61" d="M8917.595,4302.759h0c-18.187,3.492-41.612-2.619-54.417-16.3-5.819-6.111,3.493-15.568,9.313-9.312,8.584,9.167,23.861,13.532,36.375,13.24,15.858-.291,30.117-14.84,20.951-30.991-12.514-22.407-43.358-16.15-59.072-33.61-12.8-14.113-6.693-36.521,8.293-46.414,15.714-10.33,42.777-9.894,55.58,4.8,5.529,6.4-3.782,15.714-9.311,9.312-10.477-11.931-35.065-10.33-44.377,2.037-13.387,17.605,6.692,27.063,20.66,31.282,19.205,5.82,40.448,16.441,44.086,38.411,2.765,17.751-10.912,34.192-27.936,37.538Z" transform="translate(-573.658 -488.169)" fill="#fefefe" fill-rule="evenodd"/>
    <path id="Path_62" data-name="Path 62" d="M10570.555,3664.12a26.892,26.892,0,0,0-19.5,8.439v-6.111c0-5.529-8.729-5.529-8.729,0v71.585c0,5.529,8.729,5.529,8.729,0v-31.864a26.343,26.343,0,0,0,19.5,8.438c14.4,0,26.043-11.349,26.043-25.316s-11.639-25.316-26.043-25.316Zm0,41.467h0c-9.167,0-16.732-7.275-16.732-16.15a16.509,16.509,0,0,1,13.967-16h.146a14.106,14.106,0,0,1,2.473-.146,16.712,16.712,0,0,1,15.277,9.6h0a15.914,15.914,0,0,1-15.131,22.552Zm-64.747,9.167c-14.405,0-26.044-11.349-26.044-25.317s11.639-25.316,26.044-25.316,26.044,11.349,26.044,25.316S10520.212,3714.753,10505.808,3714.753Zm0-41.467h0c-9.167,0-16.733,7.275-16.733,16.15a16.433,16.433,0,0,0,16.733,16.15c9.167,0,16.731-7.275,16.731-16.15A16.432,16.432,0,0,0,10505.808,3673.286ZM10715.615,3689c-.146-11.64-6.4-22.116-19.061-24.443-10.912-2.037-23.715,3.637-28.371,13.531-4.8,10.33-2.765,24.589,6.691,31.718,10.331,7.857,26.481,5.383,37.1-.437,4.946-2.619.581-10.039-4.512-7.42-6.691,3.638-15.567,5.384-22.988,3.056a14.457,14.457,0,0,1-9.748-11.785h36.52A4.35,4.35,0,0,0,10715.615,3689Zm-40.594-4.219h0a2.055,2.055,0,0,1,.291-.873c2.037-6.984,9.312-10.912,16.587-11.2,8.293-.291,13.095,5.384,14.55,12.077h-31.428Zm-17.9,4.365c-.146-11.64-6.4-22.116-19.061-24.444-10.912-2.037-23.716,3.638-28.371,13.532-4.8,10.33-2.766,24.589,6.692,31.718,10.33,7.857,26.481,5.384,37.1-.437,4.947-2.619.582-10.039-4.512-7.42-6.692,3.638-15.567,5.383-22.988,3.056-5.674-1.892-8.729-6.547-9.748-11.785h36.52A4.35,4.35,0,0,0,10657.125,3689.145Zm-40.594-4.219h0a2.068,2.068,0,0,1,.291-.873c2.037-6.984,9.313-10.913,16.587-11.2,8.293-.291,13.095,5.384,14.55,12.077h-31.428Zm-147.1-3.929v29.536c0,5.529-8.73,5.529-8.73,0v-28.954a10.6,10.6,0,0,0-5.383-8.439c-6.257-2.764-17.605-1.455-24.3,7.129v30.409c0,5.529-8.73,5.529-8.73,0v-75.95c0-5.529,8.73-5.529,8.73,0v34.192c10.768-7.129,24.443-6.4,30.846-2.037a16.211,16.211,0,0,1,7.566,14.259Zm-61.691-42.922c-8.584-9.457-26.626-9.748-37.1-3.055-10.038,6.4-14.112,20.661-5.528,29.827,10.621,11.349,31.137,7.275,39.43,21.68,5.965,10.33-3.492,19.642-13.967,19.933-8.295.146-18.479-2.619-24.3-8.584-3.929-3.928-10.039,2.037-6.257,5.965,8.439,8.875,24.153,12.658,36.374,10.476,11.35-2.037,20.516-12.659,18.624-24.153-2.327-14.113-16.587-20.952-29.391-24.735-9.312-2.764-22.7-8.729-13.821-20.079,6.256-7.857,22.7-8.875,29.682-1.31C10405.269,3648.115,10411.379,3642.149,10407.742,3638.075Z" transform="translate(-1853.27 -25.145)" fill="#ee4e2c"/>
    <path id="Path_63" data-name="Path 63" d="M10636.9,4520.292h-27.936l29.827-56.453-49.032-92.537h30.264l33.9,64.019,33.9-64.019h27.936Zm-277.9-44.085h23.425v-42.776H10414c32.737,0,59.218-22.989,59.218-51.216S10446.735,4331,10414,4331h-54.853v145.207Zm23.425-66.057v-55.726H10414c17.751,0,32.155,12.513,32.155,27.79,0,15.423-14.4,27.79-32.155,27.79h-31.573Zm178.235-37.829h20.515v103.013h-20.515v-11.64a51.76,51.76,0,0,1-33.9,12.513,52.379,52.379,0,0,1,0-104.759,51.475,51.475,0,0,1,33.9,12.513Zm-33.9,21.243a30.409,30.409,0,1,1-30.409,30.409A30.4,30.4,0,0,1,10526.759,4393.564Z" transform="translate(-1853.415 -623.787)" fill="#ee4e2c" fill-rule="evenodd"/>
  </g>
</svg>
