<svg xmlns="http://www.w3.org/2000/svg" width="365.084" height="363.825" viewBox="0 0 365.084 363.825">
  <g id="logo-linkaja" transform="translate(0 -0.317)">
    <g id="Coming-Soon-LinkAja" transform="translate(0 0.317)">
      <g id="Group-26" transform="translate(0 0)">
        <g id="Group-30" transform="translate(0 0)">
          <g id="Group-3" transform="translate(0 0)">
            <path id="Fill-1" d="M330.806,364.141H34.278A34.32,34.32,0,0,1,0,329.98V34.475A34.321,34.321,0,0,1,34.278.316H330.806a34.32,34.32,0,0,1,34.278,34.16V329.98a34.319,34.319,0,0,1-34.278,34.16" transform="translate(0 -0.316)" fill="#e82529" fill-rule="evenodd"/>
          </g>
          <path id="Fill-4" d="M27.546,17.522h17.3a2.158,2.158,0,0,1,2.141,2.462L38.951,75.517a3.55,3.55,0,0,0,3.521,4.051H72.815a1.409,1.409,0,0,1,1.4,1.612L71.858,97.13a1.693,1.693,0,0,1-1.677,1.444H35.871c-10.205,0-19.993-8.341-18.553-18.411L25.4,19.394a2.159,2.159,0,0,1,2.144-1.872" transform="translate(51.222 50.987)" fill="#fefefe" fill-rule="evenodd"/>
          <path id="Fill-6" d="M40.205,24.471,32.288,81.106a1.5,1.5,0,0,0,1.484,1.7H50.51a2.385,2.385,0,0,0,2.364-2.049l7.84-55.713a2.148,2.148,0,0,0-2.134-2.422H42.338a2.15,2.15,0,0,0-2.132,1.849" transform="translate(96.239 66.196)" fill="#fefefe" fill-rule="evenodd"/>
          <path id="Fill-8" d="M50.894,79.6c-5.164-.186-7.581,1.428-10.628,3.239.735-5.106,6.5-44.9,7.028-47.342.556-2.606,1.062-6.954,3.362-9.147,2.7-2.574,6.867-4.047,27.623-4.115,21.187-.068,25.292,15.128,24.167,25-.958,8.451-4.111,29.331-5,35.165a1.812,1.812,0,0,1-1.792,1.54H79.287a1.965,1.965,0,0,1-1.953-2.236c.828-5.834,3.047-21.386,3.8-25.9.934-5.586,1.682-11.733.186-14.16s-5.983-4.281-14.582-2.79L60.379,83.67S56.287,79.8,50.894,79.6" transform="translate(120.075 65.055)" fill="#fefefe" fill-rule="evenodd"/>
          <path id="Fill-10" d="M69.632,16.714H87.786a1.111,1.111,0,0,1,1.1,1.262l-11.3,81.556a1.226,1.226,0,0,1-1.217,1.056H58.451A1.224,1.224,0,0,1,57.235,99.2L68.529,17.673a1.112,1.112,0,0,1,1.1-.959" transform="translate(170.64 48.578)" fill="#fefefe" fill-rule="evenodd"/>
          <path id="Fill-12" d="M63.867,47.876,84.385,23.931a3.409,3.409,0,0,1,2.588-1.189h18.012a1.5,1.5,0,0,1,1.116,2.5l-20.98,23.2,19.178,41.1a2.276,2.276,0,0,1-2.07,3.234H85.949a2.177,2.177,0,0,1-1.977-1.263Z" transform="translate(190.453 66.554)" fill="#fefefe" fill-rule="evenodd"/>
          <path id="Fill-14" d="M56.779,27.445C55.311,33.616,49.735,38.208,43.9,38.208a8.873,8.873,0,0,1-8.846-11.172c1.468-6.171,6.3-11.174,13.229-11.174,5.837,0,9.967,5.412,8.5,11.583" transform="translate(103.682 46.037)" fill="#fefefe" fill-rule="evenodd"/>
          <path id="Fill-16" d="M61.413,50.035C59.946,56.206,54.369,60.8,48.53,60.8a8.873,8.873,0,0,1-8.846-11.172c1.468-6.171,6.3-11.174,13.229-11.174,5.838,0,9.967,5.412,8.5,11.583" transform="translate(117.501 113.403)" fill="#fefefe" fill-rule="evenodd"/>
          <path id="Fill-18" d="M84.252,68.456a13.489,13.489,0,0,1-13.01,10.63c-6.139,0-11.094-4.949-9.857-11.046A13.289,13.289,0,0,1,74.74,57a9.516,9.516,0,0,1,9.512,11.451" transform="translate(182.482 168.726)" fill="#fefefe" fill-rule="evenodd"/>
          <path id="Fill-20" d="M62.934,88.439H51.942a.577.577,0,0,1-.538-.788l9.565-24.2a.472.472,0,0,1,.909.13l2.15,23.661a1.1,1.1,0,0,1-1.094,1.194m26.628,30.385L77.3,45.661a6.653,6.653,0,0,0-6.569-5.542H58.42a9.575,9.575,0,0,0-8.715,5.589L16.664,118.915a1.6,1.6,0,0,0,1.472,2.255l17.167-.1a2.942,2.942,0,0,0,2.691-1.785L43.7,105.906a.989.989,0,0,1,.911-.6H65.389a.989.989,0,0,1,.986.89l1.24,12.66a2.882,2.882,0,0,0,2.872,2.6h16.84a2.26,2.26,0,0,0,2.235-2.629" transform="translate(49.266 118.372)" fill="#fefefe" fill-rule="evenodd"/>
          <path id="Fill-22" d="M32.875,116.888l3.965,12.207c.712,2.009,1.25,2.454,2.643,2.161,5.008-1.052,17.11-4.616,23.032-12.6,7.718-10.407,8.777-28.8,10.14-38.155,1.122-7.7,3.578-26.661,4.41-33.1a1.94,1.94,0,0,0-1.931-2.185H59.744a2.713,2.713,0,0,0-2.693,2.343c-1.241,9.1-5.711,41.832-6.491,46.368-.908,5.279-1.089,12.883-8.925,17.421a50.085,50.085,0,0,1-7.464,3.416c-.787.366-1.677.759-1.3,2.126" transform="translate(97.763 133.561)" fill="#fefefe" fill-rule="evenodd"/>
          <path id="Fill-24" d="M81.342,89.559s-8.025,2.72-11.878-.16-4.174-8.8-1.926-17.275S75.4,62.205,77.81,62.045a31.065,31.065,0,0,1,6.935.975Zm22.223-41.3c-5.19-1.294-13.915-4.136-27.941-3.112-12.941.945-27.554,6.91-30.291,32.369s8.942,30.369,25.729,31.1a61.2,61.2,0,0,0,26.24-4.68,4.608,4.608,0,0,0,2.747-3.616l6.2-49.016C106.494,49.351,105.518,48.743,103.564,48.256Z" transform="translate(133.993 132.708)" fill="#fefefe" fill-rule="evenodd"/>
          <path id="Fill-26" d="M62.671,91.889l4.516-46.936c.162-1.682,1.578-2.367,3.273-2.367h15.58c1.451,0,2.066,1.1,1.666,2.9l-9.51,47a1.97,1.97,0,0,1-1.929,1.56H64.632a1.966,1.966,0,0,1-1.961-2.151" transform="translate(186.857 125.726)" fill="#fefefe" fill-rule="evenodd"/>
          <path id="Fill-28" d="M28.52,102.341a14.207,14.207,0,0,0,10.119,1.383C52.3,100.5,82.541,91.813,146.5,82.6,226.865,71.023,286.2,71.071,286.2,71.071l.156-.095s-52.589-7.2-138.9,1.2-134.483,21.6-134.483,21.6Z" transform="translate(38.684 201.822)" fill="#fefefe" fill-rule="evenodd"/>
        </g>
      </g>
    </g>
  </g>
</svg>
