<svg xmlns="http://www.w3.org/2000/svg" width="672.346" height="215.229" viewBox="0 0 672.346 215.229">
  <g id="logo-alfamart" transform="translate(-277.248 -30.797)">
    <g id="g7911" transform="translate(277.248 30.797)">
      <path id="path6131" d="M459.057,30.818c-9.439,0-14.937,7.278-14.937,17.7V128.29c0,10.194,5.5,17.581,14.937,17.581,9.259,0,15-7.387,15-17.581V48.522c0-10.426-5.744-17.7-15-17.7" transform="translate(-331.925 -30.804)" fill="#1756c2"/>
      <path id="path6133" d="M547.173,62.4h-7.037V58.025c0-4.909,2.86-6.977,10.425-6.118,8.051.749,9.861-4.375,9.861-8.469,0-3.166-.927-4.774-3.369-7.609-5.216-5.173-18.416-5.02-18.416-5.02s-11.965-.552-20.079,5.891c-8.081,6.272-7.376,17.691-7.376,17.691V62.4h-1.295c-5.369,0-11.072,3.344-11.072,10.205,0,6.91,6.469,10.077,11.66,10.077h.706v47.607c0,8.187,5.02,15.574,14.918,15.574,10.1,0,14.035-7.155,14.035-15.112V82.681h7.037c3.891,0,11.617-1.9,11.617-9.677,0-8.078-6.094-10.606-11.617-10.606" transform="translate(-349.846 -30.797)" fill="#1756c2"/>
      <path id="path6135" d="M660.651,73.879a13.848,13.848,0,0,0-11.249,5.48,31.332,31.332,0,0,0-17.948-5.48c-30.488,0-43.994,22.919-43.994,45.048,0,23.692,16.41,42.021,43.994,42.021a32.98,32.98,0,0,0,17.911-5.523,13.568,13.568,0,0,0,11.286,5.523c9.482,0,14.887-7.308,14.887-17.624V91.564c0-10.138-5.406-17.685-14.887-17.685Zm-43.581,43.905h0c0-18.852,9.148-22.194,15.29-22.194h.767c7.062.552,12.623,5.259,12.623,23.01,0,17.466-6.026,20.964-12.275,21.313h-.945c-7.014,0-15.464-3.344-15.464-22.129" transform="translate(-378.891 -44.913)" fill="#1756c2"/>
      <path id="path6137" d="M377.906,123.659c-1.553-4.664-26.744-76.486-28-79.874-1.387-3.406-2.663-5.873-5.707-8-5.032-3.817-15.807-3.59-15.807-3.59s-10.63-.245-15.754,3.59c-2.995,2.129-4.271,4.6-5.59,8-1.276,3.387-26.467,75.211-28.2,79.874-1.411,4.559-2.633,10.144,0,14.7,2.89,4.265,7.657,7.965,13.818,7.965,6.248,0,11.79-2.712,14.208-10.32,2.356-7.782,3.59-11.586,3.59-11.586h35.96s1.172,3.8,3.547,11.586c2.375,7.609,8.051,10.32,14.128,10.32a16.07,16.07,0,0,0,13.807-7.965c2.737-4.553,1.675-10.138,0-14.7ZM317.238,99.676h0L328.4,63.251l11.192,36.425Z" transform="translate(-277.265 -31.253)" fill="#1756c2"/>
      <path id="path6139" d="M910.4,321.271H277.248v13.667H910.4a39.248,39.248,0,0,0,38.673-32.782A48.218,48.218,0,0,1,910.4,321.271" transform="translate(-277.248 -119.709)" fill="#efcf00"/>
      <path id="path6141" d="M949.559,253.009V242.055H316.523a39.393,39.393,0,0,0-39.275,39.309v10.954H910.405a39.285,39.285,0,0,0,39.157-39.309" transform="translate(-277.248 -100.017)" fill="#d60f27"/>
      <path id="path6143" d="M853.813,72.533c-16.018,0-31.591,21.447-37.114,29.745a60.876,60.876,0,0,1,1.54-8.071c1.166-5.462,2.178-13.2-1.54-17.758-2.178-2.639-5.388-3.915-9.7-3.915-14.831,0-29.485,18.921-35.75,28.18.742-2.706,1.626-6.094,2.221-8.051.97-4.553,2.884-11.653-.184-15.791-1.829-2.553-4.842-3.7-9.112-3.7-6.977,0-14.74,3.277-15.065,3.277l-1.583.712,1.448.853s2.135,2.136.491,13.439c-2.817,19.869-9.3,43.557-11.831,52.952-1.454,4.793-1.233,8.707.681,11.3,2.019,2.645,5.695,4.161,10.281,4.161a33.042,33.042,0,0,0,12.53-2.442l.945-.245-.749-.963c0-.061-3.338-5.02,1.062-14.653,14.825-32.979,26.812-46.111,30.161-48.352.792-.368,1.252-.81,1.823-.81a.5.5,0,0,1,.552.43c.368.184.43.994.368,1.737-1.209,11.462-6.051,30.6-9.166,43.4-.669,2.927-1.387,5.308-1.767,7.309-1.141,4.9-.761,8.707,1.1,11.235,1.853,2.093,4.848,3.3,9.088,3.3a38.972,38.972,0,0,0,12.764-2.485l1.209-.491-.9-.816c0-.307-3.209-4.492,1.295-14.69,10.958-25.368,25.759-45.189,29.608-48.072a4.2,4.2,0,0,1,2.356-1.031c.123,0,.184,0,.43.368a4.378,4.378,0,0,1,.307,2.706c-.061.491-.491,2.068-.835,4.418-2.2,8.78-6.094,26.933-8.229,39.562-1.276,7.542-.657,13.192,2.135,16.409,2.264,2.6,5.811,4.111,10.12,4.111,7.523,0,14.476-4.688,14.782-4.86l1.1-.749-1.006-.681s-5.327-5.02-2.712-19.821c1.853-9.923,4.247-21.337,6.051-29.635.859-4.161,1.411-7.615,1.872-9.506l.123-.743c.963-4.553,2.418-12.868-1.522-17.581-2.086-2.725-5.234-3.762-9.609-3.762" transform="translate(-427.788 -44.452)" fill="#d60f27"/>
      <path id="path6145" d="M1012.662,73.449c-4.547,0-8.247,1.215-10.776,3.67a32.8,32.8,0,0,0-16.457-4.553,35.594,35.594,0,0,0-19.49,5.83q-13,8.054-21.932,25.694c-13.483,26.29-7.02,45.49-3.633,50.2,2.952,4.093,7.038,5.94,12.935,5.94,8.339,0,19.428-3.277,36.341-29.853a111.467,111.467,0,0,0-1.049,13.487c0,14.476,10.2,16.035,14.4,16.035,10.892,0,14.691-5.081,14.721-5.253l.43-.552-.43-.552c-.123-.184-5.075-5.241-1.816-32.167a150.3,150.3,0,0,1,12.045-43.552l.43-.712-.755-.491a44.45,44.45,0,0,0-14.955-3.166ZM965.608,140.52h0c-2.221,0-3.406-3.8-3.406-7.787,0-4.314,2.154-29.149,12.667-41.887,2.332-2.479,5.106-4.044,7.874-4.044,6.732,0,13.028,7.209,14.587,9.064-8.161,16.587-19.625,33.769-27.781,42.189-1.5,1.675-2.946,2.467-3.94,2.467" transform="translate(-493.034 -44.482)" fill="#d60f27"/>
      <path id="path6147" d="M1141.528,72.562c-11.777,0-25.915,19.49-31.9,28.531.988-3.909,2.442-9.672,3.559-14.981.773-3.976.245-7.082-1.295-9.168-2.025-2.283-5.363-3.5-10.032-3.5-6.683,0-14.754,2.921-15.041,3.031l-1.172.491,1.037.884c0,.123,2.178,3.209.835,14.054-1.872,11.813-9.389,41.268-12.56,53.192-1.454,4.793-1.1,8.289.663,10.775,2.682,3.633,7.9,4.05,11.486,4.05,6.106,0,12.182-2.136,12.446-2.442l1.166-.245-.7-.963c-.044-.061-2.909-4.627.43-13.446,8.995-22.7,18.993-35.966,24.994-40.519a7.475,7.475,0,0,1,4.185-1.565c3.3,0,5.388,3.7,5.388,3.7l.491.927.73-.749c3.142-3.124,8.751-9.753,10.794-15.734,1.411-3.584,3.24-9.96.491-13.66-1.141-1.847-3.185-2.663-6-2.663" transform="translate(-538.327 -44.481)" fill="#d60f27"/>
      <path id="path6149" d="M1246.693,73.576c-3.3,1.141-11.415,1.89-22.306,1.89h-2.921c.491-2.817,2.461-10.776,4.6-18.323,1.344-4.553,1.19-8.291-.73-10.709-1.89-2.313-4.989-3.351-9.7-3.351-6.6,0-16.107,2.952-16.477,3.124l-1.411.43,1.215,1.1c3.645,3.731-.307,21.711-2.007,28.394-.184.368-9.456,36.034-9.456,53.079,0,14.3,7.83,21.387,22.833,21.387,7,0,17.2-1.89,24.062-7.836a10.436,10.436,0,0,0,3.522-10.205,17.129,17.129,0,0,0-1.823-5.124l-.491-1.037-.878.816a28.961,28.961,0,0,1-9.378,5.124,21.474,21.474,0,0,1-6.045,1.148,7.935,7.935,0,0,1-5.216-2.136c-3.473-3.565-1.234-16.3-.491-20.392,1.166-6.467,4.019-18.5,4.639-21.514,1.08,0,3.344-.044,6.248-.044,2.491,0,4.621.044,6.707.044,12.911.245,16.526-9.788,16.654-15.089V73.029Z" transform="translate(-575.498 -34.822)" fill="#d60f27"/>
    </g>
  </g>
</svg>
