<svg xmlns="http://www.w3.org/2000/svg" width="672.346" height="158.288" viewBox="0 0 672.346 158.288">
  <g id="logo-bri" transform="translate(617.312 -8.758)">
    <g id="g204" transform="translate(-435.392 48.486)">
      <path id="path206" d="M0,0H36.232C50.906,0,61.845,6.43,61.845,19.977c0,9.932-5.076,15.461-13.88,18.4V38.6c10.5,2.148,15.915,7.791,15.915,17.382,0,18.85-16.6,22.8-30.7,22.8H0ZM20.991,31.156h5.87c6.884,0,14-1.694,14-8.358,0-7.217-6.777-7.9-13.78-7.9h-6.09V31.156Zm0,32.73H27.2c7.677,0,15.688-1.134,15.688-9.145,0-8.578-8.238-9.365-15.468-9.365h-6.43Z" fill="#00529c"/>
    </g>
    <g id="g208" transform="translate(-373.868 48.486)">
      <path id="path210" d="M24.3,0H50.037L80.4,78.78H57.374L51.5,61.965H21.936L15.726,78.78H-5.605ZM37.17,16.255h-.227L26.785,47.071H46.542L37.17,16.255Z" transform="translate(5.605)" fill="#00529c"/>
    </g>
    <g id="g212" transform="translate(-284.943 48.486)">
      <path id="path214" d="M0,0H26.747l26.64,53.5h.22L53.274,0h19.19V78.78H46.384L18.85,24.939h-.22L19.3,78.78H0Z" transform="translate(0)" fill="#00529c"/>
    </g>
    <g id="g216" transform="translate(-205.356 48.486)">
      <path id="path218" d="M0,0H20.991V32.17h.227L44.916,0H70.2L41.081,36.679l31.376,42.1H45.7L21.218,43h-.227V78.78H0Z" fill="#00529c"/>
    </g>
    <path id="path236" d="M-495.245,16.2h20.991V94.984h-20.991Z" transform="translate(529.289 32.281)" fill="#00529c"/>
    <g id="g246" transform="translate(-617.312 8.758)">
      <path id="path248" d="M108.9,0H-.963C-14.3,0-25.115,11.079-25.115,24.746v108.8c0,13.534,10.612,24.539,23.779,24.739H108.84c13.34,0,24.159-11.072,24.159-24.739l.047-108.8C133.046,11.079,122.24,0,108.9,0M12.091,145.608l-5.99.067a13.231,13.231,0,0,1-13.14-13.32l-.033-1.047V30.829l.04-5.416c.273-7.117,5.683-12.84,12.76-12.84H17.914c11.046,0,20,9.6,20,20.924a20.685,20.685,0,0,1-5.75,14.381L1.072,79.427,30.213,109.1a20.792,20.792,0,0,1,6.023,14.527c0,12.14-10.806,21.978-24.146,21.978m89.586-.1-54.328-.02s6.277-13.574,6.277-21.978c0-10.252-3.422-19.4-8.785-25.46L26.258,79.107l18.963-19.6c5.65-5.3,9.4-14.721,9.4-25.453,0-8.5-2.348-16.022-6.13-21.484h13.16c11.046,0,20,9.6,20,20.924A20.685,20.685,0,0,1,75.9,47.878L45.408,79.1l63.339,64.586a13.388,13.388,0,0,1-7.07,1.821m13.267-20.164L69.553,79.08,91.171,57.109c4.4-5.5,7.19-13.787,7.19-23.052,0-8.551-2.381-16.268-6.2-21.731l9.672.293a13.231,13.231,0,0,1,13.14,13.32Z" transform="translate(25.115)" fill="#00529c"/>
    </g>
    <g id="g228" transform="translate(-106.866 48.486)">
      <path id="path230" d="M0,0H36.232C50.9,0,61.852,6.43,61.852,19.977c0,9.932-5.076,15.461-13.88,18.4V38.6c10.5,2.148,15.908,7.791,15.908,17.382,0,18.85-16.588,22.8-30.7,22.8H0ZM20.991,31.156h5.87c6.89,0,13.994-1.694,13.994-8.358,0-7.217-6.763-7.9-13.767-7.9h-6.1V31.156Zm0,32.73H27.2c7.671,0,15.688-1.134,15.688-9.145,0-8.578-8.238-9.365-15.461-9.365H20.991V63.886Z" fill="#00529c"/>
    </g>
    <g id="g232" transform="translate(-38.329 48.486)">
      <path id="path234" d="M0,0H37.473C51.466,0,62.866,6.323,62.866,19.87c0,10.492-4.963,17.489-15.121,19.857v.227c6.763,1.808,7.217,7.791,11.172,17.382L66.587,78.78H44.7L40.181,64.566c-4.289-13.547-7-16.942-14.788-16.942h-4.4V78.78H0ZM20.991,32.73h5.53c6.777,0,15.355-.227,15.355-9.145,0-7.33-7.337-8.684-15.355-8.684H20.991V32.73Z" transform="translate(0)" fill="#00529c"/>
    </g>
  </g>
</svg>
