<svg id="logo-bni" xmlns="http://www.w3.org/2000/svg" width="642.3" height="186.95" viewBox="0 0 642.3 186.95">
  <path id="Path_27" data-name="Path 27" d="M221.82,0c7.52,5.15,15.17,12.96,15.17,20.5V153.47c0,7.45-7.03,17.99-13.42,22.19h67.69c43.8-1.81,70.36-17.62,73.54-50.78,2.22-23.25-10.06-41.33-40.25-51.53,15.06-5.73,23.16-18.21,23.9-35.42C349.72,8.33,315.27,0,293.6,0H221.82Zm42.01,71.2V15.76h20.78c23.56,0,34.67,11.56,34.66,28.99S303.33,71.2,283.44,71.2Zm22.15,87.53H263.83V86.95h25.1c37.38,0,48.69,22.48,46.68,40.85S317.82,158.73,285.98,158.73ZM424.4,0H387.62c8.18,9.1,11.74,13.88,11.74,27.99V149.17c0,13.95-6.18,22.52-15.06,28.58h48.95c-7.27-4.44-15.09-13.15-15.09-28.91V41.8q37.08,49.53,74.17,99.08c14.02,18.34,30.27,33.89,49.22,46.07V27.35C541.55,11.37,548,5.27,556.62,0H508.9c8.65,6.42,13.24,13.66,13.24,26.72V133.59L424.4,0ZM583.71,177.75c9.9-6.57,14.93-14.28,14.93-24.28V26.54c0-15-4.33-18.4-12.83-26.54H642.3c-9.75,5.49-16.59,16.7-16.59,26.54V153.12c0,9.71,5.75,18.61,13.55,24.63H583.71Z" fill="#007697" fill-rule="evenodd"/>
  <path id="Path_28" data-name="Path 28" d="M0,0H54.53c-2.85,4.89-5,15.88.51,40.56,4.9,21.94,19.07,44.82,33.86,62.91L70.32,118.72,0,30.37V0ZM79.63,0h96V23.26c-7.43-4.34-20.97-8.53-40.85-.58C102.7,35.52,99.95,73.1,99.95,73.1,82.2,51.66,70.53,16.51,79.63,0Zm96,54.12v69.24c-21.81,8.28-52.41-13.25-60.1-38.81-11.14-37.04,15.12-50.41,33.91-46.74a42.992,42.992,0,0,1,26.19,16.31Zm0,80.6v40.92H116.79l11.8-9.69c-7.7.94-22.82-2.68-30.18-11.93L77.7,128l18.93-15.55c11.64,12.83,22.72,22.04,28.98,24.81,13.42,5.92,28.53,8.77,50.02-2.54ZM83.94,175.64H19.67l40.04-32.88c3.28,4.12,6.44,8.1,9.45,11.87a229.583,229.583,0,0,1,14.78,21.01Zm-82.95,0H0V67.73c15.29,19.22,34.83,43.77,52.33,65.76L.99,175.64Z" fill="#ec6722" fill-rule="evenodd"/>
</svg>
