<svg id="logo-bca" xmlns="http://www.w3.org/2000/svg" width="672.346" height="219.85" viewBox="0 0 672.346 219.85">
  <path id="Path_20" data-name="Path 20" d="M112.156,8.21h-.66c-29.532,0-57.946,6.852-85.481,20.674C14.84,55.43,8.538,82.415,8.208,109.95c-.44,27.315,5.194,55.29,17.688,83.823q43.13,18.741,86.26,19.245,43.13-.508,86.251-19.245c12.5-28.533,18.137-56.508,17.7-83.823-.33-27.535-6.632-54.52-17.807-81.066C170.762,15.062,142.347,8.21,112.815,8.21h-.66Z" transform="translate(-0.687 -0.69)" fill="#fefefe" fill-rule="evenodd"/>
  <path id="Path_21" data-name="Path 21" d="M20.683,22.121h0C49.657,7.3,79.729,0,110.809,0h1.319c31.08,0,61.152,7.3,90.126,22.121h0L204.03,24c11.826,27.865,18.577,56.288,18.906,85.152v3.536c-.11,27.755-6.082,56.069-18.906,84.822l-2,1.878c-30.182,13.383-60.374,20.125-90.565,20.463-30.191-.339-60.383-7.081-90.565-20.463l-2-1.878C6.082,168.755.11,140.442,0,112.687v-3.536C.33,80.288,7.081,51.864,18.906,24l1.777-1.878Zm90.785-14.6h-.66c-29.532,0-57.946,6.852-85.481,20.674C14.152,54.74,7.85,81.726,7.52,109.261c-.44,27.315,5.194,55.29,17.688,83.823q43.13,18.741,86.26,19.245,43.13-.508,86.251-19.245c12.5-28.533,18.137-56.508,17.7-83.823-.33-27.535-6.632-54.52-17.807-81.066C170.074,14.372,141.66,7.52,112.128,7.52h-.66Z" fill="#039"/>
  <path id="Path_22" data-name="Path 22" d="M120.614,173.411c-1.548-21.123-.55-43.135-6.852-63.259-5.862-18.8-28.094-29.523-28.533-50.206C84.789,43.8,97.064,25.11,120.065,25.11,141.627,25,155.01,40.7,156.558,58.178c1.878,20.235-22.671,33.837-29.083,53.082-6.641,19.685-4.754,41.467-6.861,62.151Z" transform="translate(-7.158 -2.109)" fill="#039" fill-rule="evenodd"/>
  <path id="Path_23" data-name="Path 23" d="M133.119,173.243c-.889-18.357-.889-35.935,4.2-51.534,5.633-17.688,17.358-32.619,35.275-37.483,12.274-3.316,30.292,11.056,27.425,25.767-2.437,11.835-14.271,25.767-33.288,27.315-8.849.769-12.6,7.85-18.137,11.945,24.769-2.437,40.808-12.165,51.974-22.341,1.658,8.62,2.766,23.111-3.985,28.085-13.264,9.4-25.538,1.768-41.138,6.192-8.73,2.546-14.152,8.079-22.332,12.055Z" transform="translate(-11.144 -7.034)" fill="#039" fill-rule="evenodd"/>
  <path id="Path_24" data-name="Path 24" d="M108.4,173.243c.989-18.357.879-35.935-4.095-51.534C98.662,104.021,86.946,89.09,69.029,84.226,56.755,80.91,38.618,95.282,41.6,109.993c2.437,11.835,14.262,25.767,33.288,27.315,8.739.769,12.6,7.85,18.137,11.945-24.888-2.437-40.808-12.165-51.974-22.341C39.4,135.531,38.288,150.022,45.03,155c13.273,9.4,25.547,1.768,41.138,6.192C94.906,163.735,100.21,169.268,108.4,173.243Z" transform="translate(-3.343 -7.034)" fill="#039" fill-rule="evenodd"/>
  <path id="Path_25" data-name="Path 25" d="M168.816,209.945v-2.986l2.217-.55-2.217-3.316V197.56l9.957,13.822-3.536.889-2.437-3.435-3.985,1.108Zm0-12.384h0v5.533l-1.548-2.217-.66,6.641,2.208-.559v2.986l-2.537.559-.449,4.085-3.536.889,2.327-18.027,3.536-.889.66,1Zm-32.949,22.012h0V216.7h.769a12.415,12.415,0,0,0,2.327-.339,2.073,2.073,0,0,0,1.108-.769,2.234,2.234,0,0,0,.44-1.438,2.383,2.383,0,0,0-.559-1.328,1.869,1.869,0,0,0-1.1-.66,12.521,12.521,0,0,0-2.986,0v-2.876c.879,0,1.438-.11,1.658-.11a2.679,2.679,0,0,0,1.328-.779,1.381,1.381,0,0,0,.33-1.328,1.449,1.449,0,0,0-.55-1.218,1.518,1.518,0,0,0-1.328-.55,9.4,9.4,0,0,0-1.438.11v-2.876a10.372,10.372,0,0,1,2.656,0,4.715,4.715,0,0,1,3.316,1.768,5.348,5.348,0,0,1,.66,2,3.816,3.816,0,0,1-.44,2.208,3.956,3.956,0,0,1-1.658,1.658,4.393,4.393,0,0,1,2.537,1.328,3.822,3.822,0,0,1,1.108,2.437,8.432,8.432,0,0,1-.33,2.317,5.85,5.85,0,0,1-1.328,1.887,6.761,6.761,0,0,1-2.208.989c-.559.11-2,.22-4.095.449Zm20.894-9.3h0l3.435.449a6.645,6.645,0,0,1-5.972,6.632,7.676,7.676,0,0,1-5.862-1.328,9.11,9.11,0,0,1-3.316-5.862,9.235,9.235,0,0,1,1.1-6.852,7.472,7.472,0,0,1,5.2-3.316,7.151,7.151,0,0,1,5.3.989,5.773,5.773,0,0,1,2.217,2.766l-3.206,1.328a3.482,3.482,0,0,0-1.548-1.768,3.751,3.751,0,0,0-2.437-.44,4.089,4.089,0,0,0-2.766,1.878,6.561,6.561,0,0,0-.44,4.534,7.892,7.892,0,0,0,1.988,4.314,3.741,3.741,0,0,0,3.206.879,3.794,3.794,0,0,0,2.107-1.328,5.228,5.228,0,0,0,.989-2.876Zm-20.894-7.74h0v2.876c-.44,0-.889.11-1.438.11l-1.988.229.33,3.866,2.317-.22a1.914,1.914,0,0,0,.779-.11v2.876h-.11l-2.656.22.33,4.534,2.437-.22v2.876l-5.533.55L128.786,203.2l6.751-.55a.384.384,0,0,1,.33-.119Zm-21.343,11.175h0v-2.876a4.616,4.616,0,0,0,1.548-.22,2.615,2.615,0,0,0,1.108-.779,2.935,2.935,0,0,0,.33-1.328,1.858,1.858,0,0,0-.449-1.548,2.039,2.039,0,0,0-1.319-.769c-.339,0-.669-.11-1.218-.11V203.2a9.838,9.838,0,0,1,3.206.33,4.057,4.057,0,0,1,2.437,1.658,4.73,4.73,0,0,1,.879,3.316,6.7,6.7,0,0,1-.55,2.656,7.326,7.326,0,0,1-1.438,1.658,15.39,15.39,0,0,1-1.878.779,18.154,18.154,0,0,1-2.656.11Zm0-10.507h0v2.876H113.2l-1.658-.11v4.864h2.986v2.876h-3.1l-.11,6.412-3.435-.11.339-16.919,5.414.11Zm-31.959,8.849h0v-5.2a8.611,8.611,0,0,0,1.988.22,2.089,2.089,0,0,0,1.108-.55,3.137,3.137,0,0,0,.55-1.218,2.122,2.122,0,0,0-.22-1.438,2.059,2.059,0,0,0-1.218-.879,18.3,18.3,0,0,0-2.208-.449v-2.876l1.438.229a12.884,12.884,0,0,1,3.756,1.1,3.7,3.7,0,0,1,1.658,2,5.1,5.1,0,0,1-1.429,5.633,5.4,5.4,0,0,1-3.545,1,6.93,6.93,0,0,1,1.548,1.658,16.888,16.888,0,0,1,1.438,3.1l1.438,3.655-3.985-.779-1.768-4.095c-.22-.33-.33-.769-.55-1.1Zm9.728-10.507h0l3.316.33-.769,9.178c-.11,1.438-.11,2.437-.11,2.766a3.014,3.014,0,0,0,.879,1.768,3.462,3.462,0,0,0,2.217.889,3.153,3.153,0,0,0,2.208-.449,2.527,2.527,0,0,0,1.108-1.328c.11-.55.22-1.548.33-2.876l.779-9.4,3.426.339-.769,8.839a14.4,14.4,0,0,1-.669,4.314,4.781,4.781,0,0,1-1.108,1.988,4.682,4.682,0,0,1-2.208,1.218,6.955,6.955,0,0,1-3.206.22,8.837,8.837,0,0,1-3.655-.879,6.735,6.735,0,0,1-1.878-1.548,5.025,5.025,0,0,1-.769-1.988,27.606,27.606,0,0,1,0-4.314Zm-26.866,4.974h0l.66-2.766,7.191,1.878-1.768,6.531a7.547,7.547,0,0,1-3.545.989,12.606,12.606,0,0,1-4.085-.33,8.977,8.977,0,0,1-4.2-2.208,7.845,7.845,0,0,1-2.1-3.875,10.769,10.769,0,0,1,.22-4.644,10.178,10.178,0,0,1,2.317-4.314,7.07,7.07,0,0,1,3.875-2.1,7.977,7.977,0,0,1,4.2.22,7.794,7.794,0,0,1,4.415,2.546,5.783,5.783,0,0,1,1.218,4.085l-3.426-.22A3.434,3.434,0,0,0,69.622,200a4.323,4.323,0,0,0-2.208-1.328,4.875,4.875,0,0,0-3.765.44,6.428,6.428,0,0,0-2.427,3.765,6.872,6.872,0,0,0,.11,4.754,4.518,4.518,0,0,0,2.986,2.317,7.54,7.54,0,0,0,2.208.22,11.8,11.8,0,0,0,2.107-.55l.55-2.1-3.756-1Zm17.138-6.861h0l-5.753-.989-2.876,16.7,3.316.55,1.218-6.962.779.11a8.424,8.424,0,0,1,1.658.44,6.219,6.219,0,0,1,.879.889c.11.33.449.879.779,1.658v-5.2c-.33,0-.669-.11-1.108-.11l-2.427-.44.66-4.2,2.656.44h.22Z" transform="translate(-4.824 -16.421)" fill="#039" fill-rule="evenodd"/>
  <path id="Path_26" data-name="Path 26" d="M628.287,165.26V134.07H642V79.22l-13.713,27.425V38.192h53.852l13.713,157.7H642V165.26Zm0-127.068h0v68.453L614.575,134.07h13.713v31.19H602.41l-10.617,28.973H558.4V158.179l37.263-80.4h-7.63l21.233-39.59h19.025ZM558.4,90.725h0l16.7-39.59-16.7-9.288ZM425.585,75.574h0a37.367,37.367,0,0,0,0-13.163ZM558.4,41.847h0V90.725l-2.208,5.3c-32.958-23.55-81.616-2.1-84.382,22.781-2.757,25.987,17.038,47,67.574,31.3l-17.367,46.441c-66.676,7.41-92.553-19.016-96.428-49.867V129.206a95.693,95.693,0,0,1,5.972-23.221C464.405,24.37,517.7,42.726,537.942,41.178l2.986-9.068L558.4,41.847Zm0,116.332h0l-16.7,36.054h16.7ZM365.651,193.235h0c35.715-7.072,70.77-49.986,35.605-84.153a47.061,47.061,0,0,0,24.329-33.507V62.411c-2.427-13.6-12.934-24.659-32.729-24.989l-27.205-.559v30.3h11.276c12.055,0,10.507,31.19-4.534,31.19h-6.742v23.889c16.259,3.1,10.507,25.648,0,32.619v38.371Zm59.934-64.029h0v17.477A77.438,77.438,0,0,1,425.585,129.206ZM318.541,35.875h0l-22,42.686,9.838-.779L279.84,194.233h75.973a49.116,49.116,0,0,0,9.838-1V154.864a10.638,10.638,0,0,1-6.082,2.1H332.254l9.068-35.055h20.454a19.611,19.611,0,0,1,3.875.339V98.355H346.626l7.63-31.19h11.4v-30.3l-47.11-.989Z" transform="translate(-23.506 -2.697)" fill="#039" fill-rule="evenodd"/>
</svg>
