<svg xmlns="http://www.w3.org/2000/svg" xmlns:xlink="http://www.w3.org/1999/xlink" width="837" height="240.11" viewBox="0 0 837 240.11">
  <defs>
    <linearGradient id="linear-gradient" x1="0.063" y1="1.362" x2="0.937" y2="-0.348" gradientUnits="objectBoundingBox">
      <stop offset="0" stop-color="#f6ad02"/>
      <stop offset="0.2" stop-color="#fff000"/>
      <stop offset="0.412" stop-color="#f6ad02"/>
      <stop offset="0.659" stop-color="#fff000"/>
      <stop offset="0.788" stop-color="#f6ad02"/>
      <stop offset="1" stop-color="#fff000"/>
    </linearGradient>
  </defs>
  <g id="logo-mandiri" transform="translate(0 0)">
    <path id="Path_30" data-name="Path 30" d="M621.06,136.86h29.18V237.2H621.06ZM549.24,237.2V168.01c0-5.67-.1-11.1-.3-16.33-.2-5.2-.46-10.13-.86-14.82h26.75l1.06,17.95a27.8,27.8,0,0,1,12.16-13.99c5.53-3.16,12.46-4.73,20.72-4.73h.87l-.1,26.35c-1.77-.13-3.06-.23-3.93-.3-.9-.07-1.7-.1-2.4-.1-7.63,0-13.59,1.87-17.89,5.57-4.33,3.69-6.49,8.86-6.49,15.42V237.2H549.24ZM505.12,136.86H534.3V237.2H505.12ZM457.83,237.2l-.96-14.33a36.453,36.453,0,0,1-12.99,12.2,35.65,35.65,0,0,1-17.19,4.1q-18.24,0-29.62-14.3-11.34-14.295-11.36-37.81,0-23.64,11.13-37.85,11.145-14.175,29.48-14.19a37.1,37.1,0,0,1,17.36,3.87,34.787,34.787,0,0,1,12.79,11.76V93.25h28.98V217.01c0,5.06.07,9.19.23,12.33.17,3.16.44,5.79.74,7.86H457.83Zm-42.54-49.97q0,15.54,5.37,24.08c3.56,5.7,8.59,8.53,15.02,8.53,6.56,0,11.8-2.9,15.63-8.73s5.76-13.79,5.76-23.88c0-10.13-1.93-18.16-5.76-23.99-3.83-5.86-9.07-8.79-15.63-8.79-6.43,0-11.46,2.86-15.02,8.63S415.29,176.9,415.29,187.23ZM277.38,237.2V156.11c0-2.86-.06-5.86-.23-8.99s-.43-6.56-.73-10.26H304.2l.6,15.05c3.76-6.06,8.26-10.49,13.43-13.29s11.49-4.2,18.98-4.2q16.59,0,24.62,9.43,8.04,9.39,8.06,28.75v64.6H341.21V176.6c0-7.5-1.3-12.86-3.87-16.12-2.56-3.24-6.72-4.87-12.52-4.87-5.6,0-10.13,1.8-13.53,5.43q-5.145,5.4-5.13,14.39V237.2H277.38ZM.77,237.2V156.11c0-3.6-.07-6.96-.2-10.12s-.34-6.2-.57-9.13H27.62l.76,15.05c3.77-6.06,8.23-10.49,13.43-13.29,5.16-2.8,11.49-4.2,18.95-4.2,7.57,0,13.93,1.67,19.16,5.04a28.928,28.928,0,0,1,11.39,14.59q4.9-10.155,12.79-14.9,7.9-4.74,20.02-4.73,16.605,0,24.69,9.43,8.1,9.39,8.09,28.75v64.6H127.92V176.6c0-7.5-1.3-12.86-3.86-16.12-2.57-3.24-6.73-4.87-12.53-4.87-5.59,0-10.09,1.8-13.42,5.43-3.37,3.6-5.03,8.4-5.03,14.39V237.2H64.09V176.6c0-7.43-1.26-12.76-3.79-16.06s-6.63-4.93-12.3-4.93q-8.385,0-13.32,5.37c-3.3,3.59-4.93,8.39-4.93,14.45V237.2H.77Zm234.55-10.48c-5.85,5.1-17.28,10.58-25.15,12.35a43.554,43.554,0,0,1-9.86,1.04,28.177,28.177,0,0,1-21.17-8.89q-8.52-8.91-8.51-22.71c0-7.39,1.45-13.39,4.34-18.05a30.094,30.094,0,0,1,12.31-11.06,63.73,63.73,0,0,1,19.58-5.74c7.79-1.13,15.87-1.99,24.22-2.51v-.55c0-24-34.22-21.01-48.86-10.75l-5.06-18.91a82.18,82.18,0,0,1,36.68-8.09c24.53,0,45.25,11.76,45.25,39.87v64.69H235.32Zm-2.3-19.58V187.79c-4.42.43-9.24,1-14.41,1.71a63.84,63.84,0,0,0-11.77,2.55,15.886,15.886,0,0,0-7.5,5.13,14.169,14.169,0,0,0-2.61,8.89c0,25.41,29.67,17.16,36.29,1.07Z" fill="#0061ae"/>
    <path id="Path_31" data-name="Path 31" d="M323.91,72.94c8.95,10,25.61,37.13,45.33,35.45,46.21-3.92,72.52-53.89,129.57-50.32,23.43,1.46,34.47,40.77,57.71,44.16,36.62,5.33,71.72-50.99,131.41-47.76,24.55,1.33,34.69,42.57,59.15,44.95,22.81,2.22,58.53-30.11,89.92-46.87C829.01,39.08,814.15,18.06,798.34,17c-31.13-2.1-56.03,37.67-83.41,30.73C699,43.69,680.84-.09,654.59,0,606,.16,572.47,48.27,529.5,52.07,505.13,54.23,493.4.01,460.76,4.99c-44.68,6.82-90.34,43.64-136.85,67.95Z" fill-rule="evenodd" fill="url(#linear-gradient)"/>
  </g>
</svg>
